<svg width="105" height="105" viewBox="0 0 105 105" fill="none" xmlns="http://www.w3.org/2000/svg">
<path d="M52.5 99.375C26.6531 99.375 5.625 78.3469 5.625 52.5C5.625 26.6531 26.6531 5.625 52.5 5.625C78.3469 5.625 99.375 26.6531 99.375 52.5C99.375 78.3469 78.3469 99.375 52.5 99.375ZM52.5 9.375C28.7213 9.375 9.375 28.7194 9.375 52.5C9.375 76.2806 28.7213 95.625 52.5 95.625C76.2806 95.625 95.625 76.2806 95.625 52.5C95.625 28.7194 76.2806 9.375 52.5 9.375Z" fill="#00A0C8"/>
<path d="M86.25 37.5C96.6053 37.5 105 29.1053 105 18.75C105 8.39466 96.6053 0 86.25 0C75.8947 0 67.5 8.39466 67.5 18.75C67.5 29.1053 75.8947 37.5 86.25 37.5Z" fill="#2178AA"/>
<path d="M18.75 37.5C29.1053 37.5 37.5 29.1053 37.5 18.75C37.5 8.39466 29.1053 0 18.75 0C8.39466 0 0 8.39466 0 18.75C0 29.1053 8.39466 37.5 18.75 37.5Z" fill="#FAB400"/>
<path d="M86.25 105C96.6053 105 105 96.6053 105 86.25C105 75.8947 96.6053 67.5 86.25 67.5C75.8947 67.5 67.5 75.8947 67.5 86.25C67.5 96.6053 75.8947 105 86.25 105Z" fill="#FAB400"/>
<path d="M18.75 105C29.1053 105 37.5 96.6053 37.5 86.25C37.5 75.8947 29.1053 67.5 18.75 67.5C8.39466 67.5 0 75.8947 0 86.25C0 96.6053 8.39466 105 18.75 105Z" fill="#FAB400"/>
<path d="M28.125 76.875H24.375C23.8777 76.875 23.4008 77.0725 23.0492 77.4242C22.6975 77.7758 22.5 78.2527 22.5 78.75V86.25C22.5 85.7527 22.3025 85.2758 21.9508 84.9242C21.5992 84.5725 21.1223 84.375 20.625 84.375H16.875C16.3777 84.375 15.9008 84.5725 15.5492 84.9242C15.1975 85.2758 15 85.7527 15 86.25V93.75C15 93.2527 14.8025 92.7758 14.4508 92.4242C14.0992 92.0725 13.6223 91.875 13.125 91.875H9.375C8.87772 91.875 8.40081 92.0725 8.04918 92.4242C7.69754 92.7758 7.5 93.2527 7.5 93.75V99.375H30V78.75C30 78.2527 29.8025 77.7758 29.4508 77.4242C29.0992 77.0725 28.6223 76.875 28.125 76.875Z" fill="#DC9600"/>
<path d="M18.75 33.75C27.0343 33.75 33.75 27.0343 33.75 18.75C33.75 10.4657 27.0343 3.75 18.75 3.75C10.4657 3.75 3.75 10.4657 3.75 18.75C3.75 27.0343 10.4657 33.75 18.75 33.75Z" fill="#F0F0F0"/>
<path d="M52.5 75C64.9264 75 75 64.9264 75 52.5C75 40.0736 64.9264 30 52.5 30C40.0736 30 30 40.0736 30 52.5C30 64.9264 40.0736 75 52.5 75Z" fill="#C80A50"/>
<path d="M67.5 65.625C67.5 64.1332 66.9074 62.7024 65.8525 61.6475C64.7976 60.5926 63.3668 60 61.875 60H43.125C41.6332 60 40.2024 60.5926 39.1475 61.6475C38.0926 62.7024 37.5 64.1332 37.5 65.625V69.2681C41.4806 72.8325 46.7362 75 52.5 75C58.2638 75 63.5194 72.8325 67.5 69.2681V65.625Z" fill="#FAB400"/>
<path d="M52.5 63.75C51.5054 63.75 50.5516 63.3549 49.8484 62.6517C49.1451 61.9484 48.75 60.9946 48.75 60V54.375H56.25V60C56.25 60.9946 55.8549 61.9484 55.1517 62.6517C54.4484 63.3549 53.4946 63.75 52.5 63.75Z" fill="#D2AA82"/>
<path d="M54.375 56.25H50.625C49.1332 56.25 47.7024 55.6574 46.6475 54.6025C45.5926 53.5476 45 52.1168 45 50.625V45C45 44.0054 45.3951 43.0516 46.0984 42.3484C46.8016 41.6451 47.7554 41.25 48.75 41.25H56.25C57.2446 41.25 58.1984 41.6451 58.9017 42.3484C59.6049 43.0516 60 44.0054 60 45V50.625C60 52.1168 59.4074 53.5476 58.3525 54.6025C57.2976 55.6574 55.8668 56.25 54.375 56.25Z" fill="#EECDAC"/>
<path d="M56.25 41.25H48.75C47.7554 41.25 46.8016 41.6451 46.0984 42.3484C45.3951 43.0516 45 44.0054 45 45V41.25C45 40.2554 45.3951 39.3016 46.0984 38.5984C46.8016 37.8951 47.7554 37.5 48.75 37.5H56.25C57.2446 37.5 58.1984 37.8951 58.9017 38.5984C59.6049 39.3016 60 40.2554 60 41.25V45C60 44.0054 59.6049 43.0516 58.9017 42.3484C58.1984 41.6451 57.2446 41.25 56.25 41.25Z" fill="#2178AA"/>
<path d="M73.0087 17.31L75.1968 18.5738C75.073 19.2394 74.9999 19.9237 74.9999 20.625C74.9999 21.3263 75.073 22.0106 75.1949 22.6763L73.0068 23.94C72.5761 24.1886 72.2619 24.5982 72.1332 25.0785C72.0045 25.5588 72.0719 26.0706 72.3205 26.5013L74.1955 29.7487C74.4442 30.1794 74.8537 30.4936 75.334 30.6223C75.8144 30.751 76.3261 30.6836 76.7568 30.435L77.8649 29.7956C78.1604 29.6182 78.5003 29.5284 78.8448 29.5367C79.1894 29.545 79.5245 29.6511 79.8112 29.8425C80.338 30.21 80.8968 30.5325 81.4837 30.8063C81.7934 30.9585 82.0534 31.1957 82.2334 31.4902C82.4133 31.7847 82.5058 32.1243 82.4999 32.4694V33.75C82.4999 34.2473 82.6975 34.7242 83.0491 35.0758C83.4007 35.4275 83.8776 35.625 84.3749 35.625H88.1249C88.6222 35.625 89.0991 35.4275 89.4507 35.0758C89.8024 34.7242 89.9999 34.2473 89.9999 33.75V32.4694C89.9939 32.1245 90.0861 31.785 90.2657 31.4906C90.4453 31.1961 90.7049 30.9587 91.0143 30.8063C91.6012 30.5325 92.1599 30.21 92.6868 29.8425C92.9734 29.6511 93.3085 29.545 93.6531 29.5367C93.9977 29.5284 94.3375 29.6182 94.633 29.7956L95.7412 30.435C96.1718 30.6836 96.6836 30.751 97.1639 30.6223C97.6442 30.4936 98.0538 30.1794 98.3024 29.7487L100.177 26.5013C100.426 26.0706 100.493 25.5588 100.365 25.0785C100.236 24.5982 99.9218 24.1886 99.4912 23.94L97.303 22.6763C97.4268 22.0106 97.4999 21.3263 97.4999 20.625C97.4999 19.9237 97.4268 19.2394 97.3049 18.5738L99.493 17.31C99.9237 17.0614 100.238 16.6518 100.367 16.1715C100.495 15.6912 100.428 15.1794 100.179 14.7488L98.3043 11.5012C98.0556 11.0706 97.6461 10.7564 97.1658 10.6277C96.6855 10.499 96.1737 10.5664 95.743 10.815L94.6349 11.4544C94.3394 11.6318 93.9996 11.7216 93.655 11.7133C93.3104 11.705 92.9753 11.5989 92.6887 11.4075C92.16 11.0387 91.6004 10.7162 91.0162 10.4437C90.7064 10.2915 90.4464 10.0543 90.2665 9.75981C90.0865 9.46531 89.9941 9.1257 89.9999 8.78062V7.5C89.9999 7.00272 89.8024 6.52581 89.4507 6.17418C89.0991 5.82254 88.6222 5.625 88.1249 5.625H84.3749C83.8776 5.625 83.4007 5.82254 83.0491 6.17418C82.6975 6.52581 82.4999 7.00272 82.4999 7.5V8.78062C82.5059 9.1255 82.4138 9.46497 82.2342 9.75945C82.0546 10.0539 81.7949 10.2913 81.4855 10.4437C80.9013 10.7162 80.3417 11.0387 79.813 11.4075C79.5264 11.5989 79.1913 11.705 78.8467 11.7133C78.5021 11.7216 78.1623 11.6318 77.8668 11.4544L76.7587 10.815C76.328 10.5664 75.8162 10.499 75.3359 10.6277C74.8556 10.7564 74.4461 11.0706 74.1974 11.5012L72.3224 14.7488C72.0738 15.1794 72.0064 15.6912 72.1351 16.1715C72.2638 16.6518 72.578 17.0614 73.0087 17.31ZM86.2499 13.125C88.239 13.125 90.1467 13.9152 91.5532 15.3217C92.9597 16.7282 93.7499 18.6359 93.7499 20.625C93.7499 22.6141 92.9597 24.5218 91.5532 25.9283C90.1467 27.3348 88.239 28.125 86.2499 28.125C84.2608 28.125 82.3531 27.3348 80.9466 25.9283C79.5401 24.5218 78.7499 22.6141 78.7499 20.625C78.7499 18.6359 79.5401 16.7282 80.9466 15.3217C82.3531 13.9152 84.2608 13.125 86.2499 13.125Z" fill="#00325A"/>
<path d="M73.0087 15.435L75.1968 16.6988C75.073 17.3644 74.9999 18.0487 74.9999 18.75C74.9999 19.4513 75.073 20.1356 75.1949 20.8013L73.0068 22.065C72.5761 22.3136 72.2619 22.7232 72.1332 23.2035C72.0045 23.6838 72.0719 24.1956 72.3205 24.6263L74.1955 27.8737C74.4442 28.3044 74.8537 28.6186 75.334 28.7473C75.8144 28.876 76.3261 28.8086 76.7568 28.56L77.8649 27.9206C78.1604 27.7432 78.5003 27.6534 78.8448 27.6617C79.1894 27.67 79.5245 27.7761 79.8112 27.9675C80.338 28.335 80.8968 28.6575 81.4837 28.9313C81.7934 29.0835 82.0534 29.3207 82.2334 29.6152C82.4133 29.9097 82.5058 30.2493 82.4999 30.5944V31.875C82.4999 32.3723 82.6975 32.8492 83.0491 33.2008C83.4007 33.5525 83.8776 33.75 84.3749 33.75H88.1249C88.6222 33.75 89.0991 33.5525 89.4507 33.2008C89.8024 32.8492 89.9999 32.3723 89.9999 31.875V30.5944C89.9939 30.2495 90.0861 29.91 90.2657 29.6156C90.4453 29.3211 90.7049 29.0837 91.0143 28.9313C91.6012 28.6575 92.1599 28.335 92.6868 27.9675C92.9734 27.7761 93.3085 27.67 93.6531 27.6617C93.9977 27.6534 94.3375 27.7432 94.633 27.9206L95.7412 28.56C96.1718 28.8086 96.6836 28.876 97.1639 28.7473C97.6442 28.6186 98.0538 28.3044 98.3024 27.8737L100.177 24.6263C100.426 24.1956 100.493 23.6838 100.365 23.2035C100.236 22.7232 99.9218 22.3136 99.4912 22.065L97.303 20.8013C97.4268 20.1356 97.4999 19.4513 97.4999 18.75C97.4999 18.0487 97.4268 17.3644 97.3049 16.6988L99.493 15.435C99.9237 15.1864 100.238 14.7768 100.367 14.2965C100.495 13.8162 100.428 13.3044 100.179 12.8738L98.3043 9.62625C98.0556 9.19561 97.6461 8.88139 97.1658 8.75269C96.6855 8.62399 96.1737 8.69137 95.743 8.94L94.6349 9.57938C94.3394 9.75678 93.9996 9.84657 93.655 9.83827C93.3104 9.82997 92.9753 9.72393 92.6887 9.5325C92.16 9.16368 91.6004 8.84123 91.0162 8.56875C90.7064 8.41652 90.4464 8.1793 90.2665 7.88481C90.0865 7.59031 89.9941 7.2507 89.9999 6.90563V5.625C89.9999 5.12772 89.8024 4.65081 89.4507 4.29918C89.0991 3.94754 88.6222 3.75 88.1249 3.75H84.3749C83.8776 3.75 83.4007 3.94754 83.0491 4.29918C82.6975 4.65081 82.4999 5.12772 82.4999 5.625V6.90563C82.5059 7.2505 82.4138 7.58997 82.2342 7.88445C82.0546 8.17892 81.7949 8.41625 81.4855 8.56875C80.9013 8.84123 80.3417 9.16368 79.813 9.5325C79.5264 9.72393 79.1913 9.82997 78.8467 9.83827C78.5021 9.84657 78.1623 9.75678 77.8668 9.57938L76.7587 8.94C76.328 8.69137 75.8162 8.62399 75.3359 8.75269C74.8556 8.88139 74.4461 9.19561 74.1974 9.62625L72.3224 12.8738C72.0738 13.3044 72.0064 13.8162 72.1351 14.2965C72.2638 14.7768 72.578 15.1864 73.0087 15.435ZM86.2499 11.25C88.239 11.25 90.1467 12.0402 91.5532 13.4467C92.9597 14.8532 93.7499 16.7609 93.7499 18.75C93.7499 20.7391 92.9597 22.6468 91.5532 24.0533C90.1467 25.4598 88.239 26.25 86.2499 26.25C84.2608 26.25 82.3531 25.4598 80.9466 24.0533C79.5401 22.6468 78.7499 20.7391 78.7499 18.75C78.7499 16.7609 79.5401 14.8532 80.9466 13.4467C82.3531 12.0402 84.2608 11.25 86.2499 11.25Z" fill="#00A0C8"/>
<path d="M18.75 22.5H11.25C10.7527 22.5 10.2758 22.3025 9.92418 21.9508C9.57254 21.5992 9.375 21.1223 9.375 20.625C9.375 20.1277 9.57254 19.6508 9.92418 19.2992C10.2758 18.9475 10.7527 18.75 11.25 18.75H16.875V9.375C16.875 8.87772 17.0725 8.40081 17.4242 8.04918C17.7758 7.69754 18.2527 7.5 18.75 7.5C19.2473 7.5 19.7242 7.69754 20.0758 8.04918C20.4275 8.40081 20.625 8.87772 20.625 9.375V20.625C20.625 21.1223 20.4275 21.5992 20.0758 21.9508C19.7242 22.3025 19.2473 22.5 18.75 22.5Z" fill="#D2D2D2"/>
<path d="M18.75 20.625H11.25C10.7527 20.625 10.2758 20.4275 9.92418 20.0758C9.57254 19.7242 9.375 19.2473 9.375 18.75C9.375 18.2527 9.57254 17.7758 9.92418 17.4242C10.2758 17.0725 10.7527 16.875 11.25 16.875H16.875V7.5C16.875 7.00272 17.0725 6.52581 17.4242 6.17418C17.7758 5.82254 18.2527 5.625 18.75 5.625C19.2473 5.625 19.7242 5.82254 20.0758 6.17418C20.4275 6.52581 20.625 7.00272 20.625 7.5V18.75C20.625 19.2473 20.4275 19.7242 20.0758 20.0758C19.7242 20.4275 19.2473 20.625 18.75 20.625Z" fill="#2178AA"/>
<path d="M90 86.25H82.5C82.0027 86.25 81.5258 86.0525 81.1742 85.7008C80.8225 85.3492 80.625 84.8723 80.625 84.375C80.625 83.8777 80.8225 83.4008 81.1742 83.0492C81.5258 82.6975 82.0027 82.5 82.5 82.5H93.75C94.2473 82.5 94.7242 82.3025 95.0758 81.9508C95.4275 81.5992 95.625 81.1223 95.625 80.625C95.625 80.1277 95.4275 79.6508 95.0758 79.2992C94.7242 78.9475 94.2473 78.75 93.75 78.75H88.125V75C88.125 74.5027 87.9275 74.0258 87.5758 73.6742C87.2242 73.3225 86.7473 73.125 86.25 73.125C85.7527 73.125 85.2758 73.3225 84.9242 73.6742C84.5725 74.0258 84.375 74.5027 84.375 75V78.75H82.5C79.3987 78.75 76.875 81.2738 76.875 84.375C76.875 87.4762 79.3987 90 82.5 90H90C90.4973 90 90.9742 90.1975 91.3258 90.5492C91.6775 90.9008 91.875 91.3777 91.875 91.875C91.875 92.3723 91.6775 92.8492 91.3258 93.2008C90.9742 93.5525 90.4973 93.75 90 93.75H78.75C78.2527 93.75 77.7758 93.9475 77.4242 94.2992C77.0725 94.6508 76.875 95.1277 76.875 95.625C76.875 96.1223 77.0725 96.5992 77.4242 96.9508C77.7758 97.3025 78.2527 97.5 78.75 97.5H84.375V101.25C84.375 101.747 84.5725 102.224 84.9242 102.576C85.2758 102.927 85.7527 103.125 86.25 103.125C86.7473 103.125 87.2242 102.927 87.5758 102.576C87.9275 102.224 88.125 101.747 88.125 101.25V97.5H90C93.1012 97.5 95.625 94.9762 95.625 91.875C95.625 88.7738 93.1012 86.25 90 86.25Z" fill="#DC9600"/>
<path d="M90 84.375H82.5C82.0027 84.375 81.5258 84.1775 81.1742 83.8258C80.8225 83.4742 80.625 82.9973 80.625 82.5C80.625 82.0027 80.8225 81.5258 81.1742 81.1742C81.5258 80.8225 82.0027 80.625 82.5 80.625H93.75C94.2473 80.625 94.7242 80.4275 95.0758 80.0758C95.4275 79.7242 95.625 79.2473 95.625 78.75C95.625 78.2527 95.4275 77.7758 95.0758 77.4242C94.7242 77.0725 94.2473 76.875 93.75 76.875H88.125V73.125C88.125 72.6277 87.9275 72.1508 87.5758 71.7992C87.2242 71.4475 86.7473 71.25 86.25 71.25C85.7527 71.25 85.2758 71.4475 84.9242 71.7992C84.5725 72.1508 84.375 72.6277 84.375 73.125V76.875H82.5C79.3987 76.875 76.875 79.3988 76.875 82.5C76.875 85.6012 79.3987 88.125 82.5 88.125H90C90.4973 88.125 90.9742 88.3225 91.3258 88.6742C91.6775 89.0258 91.875 89.5027 91.875 90C91.875 90.4973 91.6775 90.9742 91.3258 91.3258C90.9742 91.6775 90.4973 91.875 90 91.875H78.75C78.2527 91.875 77.7758 92.0725 77.4242 92.4242C77.0725 92.7758 76.875 93.2527 76.875 93.75C76.875 94.2473 77.0725 94.7242 77.4242 95.0758C77.7758 95.4275 78.2527 95.625 78.75 95.625H84.375V99.375C84.375 99.8723 84.5725 100.349 84.9242 100.701C85.2758 101.052 85.7527 101.25 86.25 101.25C86.7473 101.25 87.2242 101.052 87.5758 100.701C87.9275 100.349 88.125 99.8723 88.125 99.375V95.625H90C93.1012 95.625 95.625 93.1012 95.625 90C95.625 86.8988 93.1012 84.375 90 84.375Z" fill="#F0F0F0"/>
<path d="M13.125 90H9.375C8.87772 90 8.40081 90.1975 8.04918 90.5492C7.69754 90.9008 7.5 91.3777 7.5 91.875V97.5H15V91.875C15 91.3777 14.8025 90.9008 14.4508 90.5492C14.0992 90.1975 13.6223 90 13.125 90Z" fill="#00A0C8"/>
<path d="M20.625 82.5H16.875C16.3777 82.5 15.9008 82.6975 15.5492 83.0492C15.1975 83.4008 15 83.8777 15 84.375V97.5H22.5V84.375C22.5 83.8777 22.3025 83.4008 21.9508 83.0492C21.5992 82.6975 21.1223 82.5 20.625 82.5Z" fill="#C80A50"/>
<path d="M28.125 75H24.375C23.8777 75 23.4008 75.1975 23.0492 75.5492C22.6975 75.9008 22.5 76.3777 22.5 76.875V97.5H30V76.875C30 76.3777 29.8025 75.9008 29.4508 75.5492C29.0992 75.1975 28.6223 75 28.125 75Z" fill="#2178AA"/>
</svg>
