<svg width="120" height="120" viewBox="0 0 120 120" fill="none" xmlns="http://www.w3.org/2000/svg">
<g clip-path="url(#clip0_186_3463)">
<path d="M31.9681 31.605C26.2206 18.9625 34.1206 9.42503 42.0556 6.26503V6.28503C42.1531 5.06003 42.3131 3.95753 42.4806 3.03003C42.6404 2.17591 43.0946 1.40488 43.7643 0.851221C44.434 0.297558 45.2767 -0.00365701 46.1456 3.35136e-05H69.6631C84.2956 3.35136e-05 93.8981 17.065 88.4631 32.005L84.7481 42.2225H36.7956L31.9706 31.6075L31.9681 31.605Z" fill="#0D3B8D"/>
<path d="M40.6984 32.5625C36.2384 22.755 36.8659 14.1175 40.1109 7.1875C32.9184 11.03 26.6934 20.0025 31.9684 31.605L36.7934 42.22H45.0884L40.6984 32.5625Z" fill="#00286F"/>
<path d="M95.0005 120H25.0005C23.1657 120.002 21.3532 119.598 19.6928 118.817C18.0323 118.037 16.5649 116.899 15.3955 115.485C14.2181 114.072 13.3675 112.417 12.9047 110.637C12.4418 108.857 12.378 106.997 12.718 105.19L16.2705 86.2623C17.498 79.6423 22.3255 74.4098 28.863 72.6123L46.1955 67.8898C55.2349 65.4273 64.7685 65.4273 73.808 67.8898L91.1355 72.6123H91.1405C97.678 74.4098 102.505 79.6423 103.735 86.2673L107.283 105.187C107.623 106.995 107.56 108.855 107.097 110.635C106.635 112.415 105.785 114.071 104.608 115.485C103.439 116.899 101.971 118.037 100.311 118.817C98.6502 119.598 96.8352 120.002 95.0005 120Z" fill="#0588E2"/>
<path d="M102.501 112.5H32.5006C30.6658 112.502 28.8533 112.098 27.1929 111.317C25.5324 110.537 24.065 109.399 22.8956 107.985C21.7182 106.572 20.8676 104.917 20.4048 103.137C19.9419 101.357 19.8781 99.4972 20.2181 97.69L23.7706 78.7625C24.0758 77.1134 24.6172 75.517 25.3781 74.0225C23.0251 75.2304 20.9806 76.962 19.4017 79.0839C17.8228 81.2059 16.7516 83.6617 16.2706 86.2625L12.7181 105.19C12.379 106.997 12.4432 108.857 12.906 110.637C13.3689 112.416 14.219 114.072 15.3956 115.485C16.565 116.899 18.0324 118.037 19.6929 118.817C21.3533 119.598 23.1658 120.002 25.0006 120H95.0006C96.8353 120.002 98.6478 119.598 100.308 118.817C101.969 118.037 103.436 116.899 104.606 115.485C105.543 114.357 106.253 113.09 106.741 111.75C105.398 112.235 103.968 112.5 102.501 112.5Z" fill="#0075D3"/>
<path d="M57.5009 80H62.5009V120H57.5009V80Z" fill="#0075D3"/>
<path d="M57.5009 112.5H62.5009V120H57.5009V112.5Z" fill="#005CCC"/>
<path d="M42.5011 100H35.0011C34.3381 100 33.7022 99.7366 33.2333 99.2678C32.7645 98.7989 32.5011 98.163 32.5011 97.5C32.5011 96.837 32.7645 96.2011 33.2333 95.7322C33.7022 95.2634 34.3381 95 35.0011 95H42.5011C43.1641 95 43.8 95.2634 44.2689 95.7322C44.7377 96.2011 45.0011 96.837 45.0011 97.5C45.0011 98.163 44.7377 98.7989 44.2689 99.2678C43.8 99.7366 43.1641 100 42.5011 100Z" fill="#EFF3F9"/>
<path d="M55.001 65H65.001C67.2991 65 69.5747 65.4526 71.6979 66.3321C73.8211 67.2116 75.7503 68.5006 77.3753 70.1256C79.0004 71.7507 80.2894 73.6798 81.1689 75.803C82.0483 77.9262 82.501 80.2019 82.501 82.5C82.501 83.8261 81.9742 85.0979 81.0365 86.0355C80.0988 86.9732 78.8271 87.5 77.501 87.5H42.501C41.1749 87.5 39.9031 86.9732 38.9654 86.0355C38.0278 85.0979 37.501 83.8261 37.501 82.5C37.501 77.8587 39.3447 73.4075 42.6266 70.1256C45.9085 66.8437 50.3597 65 55.001 65Z" fill="#47CAF0"/>
<path d="M47.5011 60.0996V74.9996C47.5011 78.3148 48.8181 81.4942 51.1623 83.8384C53.5065 86.1826 56.6859 87.4996 60.0011 87.4996C63.3163 87.4996 66.4957 86.1826 68.8399 83.8384C71.1841 81.4942 72.5011 78.3148 72.5011 74.9996V60.0996H47.5011Z" fill="#FFCDB4"/>
<path d="M47.5011 75.0002C47.5011 75.8177 47.5911 76.6127 47.7411 77.3852C48.4911 77.4377 49.2386 77.5002 50.0011 77.5002C58.7411 77.5002 66.6611 74.0327 72.5011 68.4177V60.0977H47.5011V75.0002Z" fill="#F6A28D"/>
<path d="M82.5035 60H70.001C69.3379 60 68.702 59.7366 68.2332 59.2678C67.7644 58.7989 67.501 58.163 67.501 57.5C67.501 56.837 67.7644 56.2011 68.2332 55.7322C68.702 55.2634 69.3379 55 70.001 55H82.5035C83.8835 55 85.0035 53.8775 85.0035 52.5V45C85.0035 44.337 85.2669 43.7011 85.7357 43.2322C86.2045 42.7634 86.8404 42.5 87.5035 42.5C88.1665 42.5 88.8024 42.7634 89.2712 43.2322C89.7401 43.7011 90.0035 44.337 90.0035 45V52.5C90.0035 56.635 86.6385 60 82.5035 60Z" fill="#AFB4C2"/>
<path d="M85.0009 50H80.0009C79.3378 50 78.7019 49.7366 78.2331 49.2678C77.7642 48.7989 77.5009 48.163 77.5009 47.5V32.5C77.5009 31.837 77.7642 31.2011 78.2331 30.7322C78.7019 30.2634 79.3378 30 80.0009 30H85.0009C89.1359 30 92.5009 33.365 92.5009 37.5V42.5C92.5009 46.635 89.1359 50 85.0009 50ZM27.5009 42.5V37.5C27.5009 33.365 30.8659 30 35.0009 30H40.0009C40.6639 30 41.2998 30.2634 41.7686 30.7322C42.2375 31.2011 42.5009 31.837 42.5009 32.5V47.5C42.5009 48.163 42.2375 48.7989 41.7686 49.2678C41.2998 49.7366 40.6639 50 40.0009 50H35.0009C30.8659 50 27.5009 46.635 27.5009 42.5Z" fill="#0075D3"/>
<path d="M85.0009 45H80.0009C79.3378 45 78.7019 44.7366 78.2331 44.2678C77.7642 43.7989 77.5009 43.163 77.5009 42.5V47.5C77.5009 48.163 77.7642 48.7989 78.2331 49.2678C78.7019 49.7366 79.3378 50 80.0009 50H85.0009C89.1359 50 92.5009 46.635 92.5009 42.5V37.5C92.5009 41.635 89.1359 45 85.0009 45ZM40.0009 45H35.0009C30.8659 45 27.5009 41.635 27.5009 37.5V42.5C27.5009 46.635 30.8659 50 35.0009 50H40.0009C40.6639 50 41.2998 49.7366 41.7686 49.2678C42.2375 48.7989 42.5009 48.163 42.5009 47.5V42.5C42.5009 43.163 42.2375 43.7989 41.7686 44.2678C41.2998 44.7366 40.6639 45 40.0009 45Z" fill="#005CCC"/>
<path d="M37.501 50V32.5C37.501 29.8478 38.5545 27.3043 40.4299 25.4289C42.3053 23.5536 44.8488 22.5 47.501 22.5H72.501C75.1531 22.5 77.6967 23.5536 79.572 25.4289C81.4474 27.3043 82.501 29.8478 82.501 32.5V50C82.5011 52.3776 82.0328 54.732 81.123 56.9286C80.2132 59.1253 78.8797 61.1212 77.1985 62.8025L72.806 67.195C71.1248 68.8763 69.1288 70.21 66.9322 71.1199C64.7355 72.0298 62.3811 72.4982 60.0035 72.4982C57.6258 72.4982 55.2714 72.0298 53.0748 71.1199C50.8781 70.21 48.8822 68.8763 47.201 67.195L42.8085 62.8025C41.1273 61.1212 39.7937 59.1253 38.8839 56.9286C37.9741 54.732 37.5059 52.3776 37.506 50H37.501Z" fill="#FFCDB4"/>
<path d="M55.6689 66.6671L50.8364 61.8346C47.1019 58.0995 45.0039 53.034 45.0039 47.7521V28.5021C45.0039 26.3146 45.6614 24.2896 46.7614 22.5771C41.5914 22.9646 37.5039 27.2346 37.5039 32.5021V50.0021C37.5039 54.8046 39.4114 59.4096 42.8064 62.8046L47.1989 67.1971C48.8802 68.8783 50.8761 70.2119 53.0728 71.1217C55.2694 72.0315 57.6238 72.4997 60.0014 72.4996C61.6289 72.4996 63.2264 72.2646 64.7689 71.8421C61.3279 70.9606 58.1858 69.1737 55.6689 66.6671Z" fill="#F6A28D"/>
<path d="M82.5035 60H70.001C69.3379 60 68.702 59.7366 68.2332 59.2678C67.7644 58.7989 67.501 58.163 67.501 57.5C67.501 56.837 67.7644 56.2011 68.2332 55.7322C68.702 55.2634 69.3379 55 70.001 55H82.5035V60Z" fill="#AFB4C2"/>
<path d="M67.5009 52.5H62.5009C59.7394 52.5 57.5009 54.7386 57.5009 57.5C57.5009 60.2614 59.7394 62.5 62.5009 62.5H67.5009C70.2623 62.5 72.5009 60.2614 72.5009 57.5C72.5009 54.7386 70.2623 52.5 67.5009 52.5Z" fill="#0D3B8D"/>
<path d="M70.0009 60.0002H65.0009C63.6749 60.0002 62.4031 59.4734 61.4654 58.5357C60.5277 57.598 60.0009 56.3263 60.0009 55.0002C60.0009 54.2677 60.1684 53.5777 60.4509 52.9502C59.4113 53.421 58.5641 54.2334 58.0502 55.2525C57.5363 56.2715 57.3867 57.4357 57.6262 58.5516C57.8657 59.6674 58.48 60.6677 59.3668 61.3861C60.2537 62.1044 61.3597 62.4976 62.5009 62.5002H67.5009C69.5284 62.5002 71.2684 61.2877 72.0509 59.5502C71.4074 59.8443 70.7085 59.9977 70.0009 60.0002Z" fill="#00286F"/>
</g>
<defs>
<clipPath id="clip0_186_3463">
<rect width="120" height="120" fill="white"/>
</clipPath>
</defs>
</svg>
