<svg width="120" height="120" viewBox="0 0 120 120" fill="none" xmlns="http://www.w3.org/2000/svg">
<g clip-path="url(#clip0_186_3518)">
<path d="M101.48 94.8011C101.576 91.8402 99.1812 89.3812 96.2348 89.3812H96.2241V89.3793H96.6623C99.5227 89.3765 101.839 87.0557 101.837 84.1956C101.835 81.3355 99.5145 79.0337 96.6544 79.0356H75.1064C74.5059 79.0356 74.0801 78.4487 74.2669 77.8785L76.1557 72.1134C77.7635 67.2072 77.4776 63.8664 77.4776 58.1195C77.4776 54.7394 74.7375 52 71.3573 52C68.2868 52 65.6911 54.2744 65.2894 57.3184C64.8452 60.6866 64.545 66.6761 58.9777 72.0372L55.0472 75.8205C52.8585 77.9286 49.938 79.1064 46.8991 79.1064H41.7363V113.078C43.1409 113.077 45.9626 113.077 45.9645 113.077C53.467 113.072 52.7812 120.502 62.1124 120.494H93.8693C96.7256 120.494 99.041 118.177 99.041 115.321C99.041 112.463 96.7256 110.148 93.8693 110.148H94.7803C97.5909 110.148 99.9914 107.962 100.085 105.152C100.183 102.215 97.8307 99.8027 94.9158 99.8027H96.1737C98.9871 99.8027 101.39 97.6136 101.48 94.8011Z" fill="#FFCDBF"/>
<path d="M81.0263 113.963H49.2694C39.9383 113.973 40.6241 106.542 33.1212 106.547L28.8943 106.549V112.585C30.2977 112.584 33.1196 112.584 33.1212 112.584C40.6241 112.579 39.9383 120.009 49.2694 120H81.0263C83.8826 120 86.198 117.684 86.198 114.828C86.1988 113.744 85.8565 112.687 85.2202 111.809C84.282 113.112 82.7546 113.963 81.0263 113.963Z" fill="#FFBEAB"/>
<path d="M40.2675 76.0537H20.6761C19.1984 76.0537 18 77.2523 18 78.73V114.119C18 115.597 19.1977 116.796 20.6761 116.796H40.2675C41.745 116.796 42.9436 115.597 42.9436 114.119V78.73C42.9436 77.2523 41.745 76.0537 40.2675 76.0537Z" fill="#54A0FF"/>
<path d="M25.2436 114.119V78.7298C25.2436 77.2521 26.442 76.0537 27.9206 76.0537H20.6761C19.1984 76.0537 18 77.2521 18 78.7298V114.118C18 115.597 19.1977 116.795 20.6761 116.795H27.9197C26.442 116.795 25.2436 115.597 25.2436 114.119V114.119Z" fill="#338DEF"/>
<path d="M33.3786 28.022C34.1091 27.3235 33.7062 26.1085 32.6966 25.9637L24.8954 24.8542C24.6992 24.8268 24.5126 24.7526 24.3513 24.6376C24.19 24.5227 24.0588 24.3706 23.9689 24.1942L20.4798 17.27C20.0284 16.3735 18.7238 16.3735 18.2715 17.27L14.7833 24.1942C14.6933 24.3708 14.562 24.523 14.4005 24.6379C14.239 24.7528 14.0522 24.827 13.8559 24.8542L6.05562 25.9637C5.0457 26.1076 4.64211 27.3233 5.37359 28.022L11.0178 33.4117C11.1602 33.5467 11.267 33.7147 11.3288 33.9009C11.3906 34.0871 11.4055 34.2857 11.3722 34.479L10.0391 42.0894C9.86703 43.0742 10.9227 43.8261 11.8262 43.3609L18.8035 39.7674C18.9808 39.6768 19.177 39.6295 19.3761 39.6295C19.5752 39.6295 19.7714 39.6768 19.9487 39.7674L26.926 43.3609C27.8295 43.8259 28.8854 43.0742 28.7131 42.0892L27.38 34.4792C27.3464 34.2859 27.3612 34.0872 27.423 33.9009C27.4848 33.7146 27.5918 33.5466 27.7344 33.4117L33.3786 28.022Z" fill="#FECA57"/>
<path d="M19.8897 33.0856C19.9233 32.8924 19.9086 32.6937 19.847 32.5075C19.7853 32.3212 19.6785 32.1531 19.5362 32.0181L13.8911 26.6284C13.3318 26.0947 13.4387 25.258 13.9726 24.8303C13.9342 24.8396 13.8958 24.8478 13.8554 24.8532L6.05521 25.9637C5.04528 26.1076 4.64263 27.3233 5.37317 28.021L11.0174 33.4107C11.1598 33.5457 11.2667 33.7137 11.3285 33.8999C11.3903 34.0861 11.4052 34.2847 11.3718 34.4781L10.0396 42.0889C9.86661 43.074 10.9222 43.8256 11.8258 43.3606L18.7124 39.8138L19.8897 33.0856ZM14.5743 24.5713L22.3743 23.4608C22.5641 23.4343 22.7451 23.3638 22.9028 23.2549C23.0606 23.146 23.1906 23.0017 23.2827 22.8336L20.48 17.27C20.0277 16.3735 18.7232 16.3735 18.2718 17.27L14.7826 24.1942C14.7023 24.3514 14.5886 24.4892 14.4493 24.5978C14.4897 24.5877 14.5311 24.5776 14.5743 24.5713Z" fill="#F4B537"/>
<path d="M113.723 28.022C114.453 27.3235 114.05 26.1085 113.04 25.9637L105.24 24.8542C104.839 24.7965 104.492 24.5502 104.312 24.1942L100.824 17.27C100.373 16.3735 99.0672 16.3735 98.6158 17.27L95.1267 24.1942C95.0369 24.3707 94.9058 24.523 94.7445 24.6379C94.5831 24.7528 94.3964 24.827 94.2002 24.8542L86.4 25.9637C85.3891 26.1076 84.9862 27.3233 85.717 28.022L91.3612 33.4117C91.5037 33.5466 91.6106 33.7146 91.6724 33.9008C91.7342 34.0871 91.7489 34.2857 91.7154 34.479L90.3834 42.0892C90.2104 43.074 91.267 43.8259 92.1693 43.3606L99.1467 39.7672C99.3241 39.6765 99.5206 39.6292 99.7198 39.6292C99.9191 39.6292 100.116 39.6765 100.293 39.7672L107.269 43.3606C108.173 43.8256 109.229 43.074 109.057 42.0889L107.723 34.479C107.69 34.2857 107.705 34.087 107.766 33.9008C107.828 33.7146 107.935 33.5465 108.078 33.4117L113.723 28.022Z" fill="#FECA57"/>
<path d="M100.234 33.0856C100.268 32.8923 100.253 32.6936 100.191 32.5074C100.129 32.3211 100.022 32.153 99.8798 32.0181L94.2356 26.6284C93.6764 26.0947 93.7832 25.258 94.3162 24.8303C94.2779 24.8398 94.2391 24.8474 94.2 24.8532L86.3997 25.9637C85.3898 26.1076 84.986 27.3233 85.7168 28.021L91.3619 33.4107C91.5042 33.5458 91.6108 33.7139 91.6725 33.9001C91.7341 34.0863 91.7487 34.2848 91.7151 34.4781L90.3832 42.0889C90.2109 43.074 91.2668 43.8256 92.1703 43.3606L99.0569 39.8138L100.234 33.0856ZM94.9176 24.5713L102.718 23.4608C102.908 23.4345 103.089 23.3641 103.247 23.2552C103.404 23.1462 103.534 23.0019 103.626 22.8336L100.824 17.27C100.372 16.3735 99.067 16.3735 98.6156 17.27L95.1274 24.1942C95.047 24.3516 94.9329 24.4894 94.7932 24.5978C94.8344 24.5877 94.8747 24.5776 94.9176 24.5713Z" fill="#F4B537"/>
<path d="M82.1896 18.472C83.3716 17.343 82.7188 15.3773 81.0864 15.1448L68.4731 13.3495C67.825 13.257 67.2637 12.8587 66.9745 12.2831L61.3338 1.08703C60.6032 -0.362344 58.4931 -0.362344 57.7633 1.08703L52.1228 12.2831C51.8324 12.8587 51.272 13.2572 50.6231 13.3495L38.0109 15.1448C36.3775 15.3773 35.7257 17.3433 36.9067 18.4718L46.0335 27.1859C46.5032 27.6345 46.7174 28.2799 46.6068 28.9125L44.4515 41.2172C44.1733 42.8102 45.8807 44.025 47.3409 43.2736L58.622 37.4634C58.9087 37.3163 59.2263 37.2396 59.5485 37.2396C59.8707 37.2396 60.1883 37.3163 60.475 37.4634L71.7562 43.2736C73.2163 44.0252 74.924 42.8102 74.6446 41.2172L72.4905 28.9125C72.3796 28.2799 72.5938 27.6345 73.0626 27.1859L82.1896 18.472Z" fill="#FECA57"/>
<path d="M59.1421 11.9571C59.7904 11.8645 60.3505 11.4654 60.6407 10.8905L63.457 5.30109L61.3337 1.08703C60.6032 -0.362344 58.4931 -0.362344 57.7633 1.08703L52.1228 12.2831C51.9604 12.6008 51.7148 12.8684 51.4122 13.0575L59.1421 11.9571ZM52.9705 39.8248L55.1247 27.5191C55.1788 27.2066 55.1549 26.8856 55.0551 26.5845C54.9553 26.2835 54.7827 26.0117 54.5526 25.7934L45.4255 17.0784C44.4644 16.1611 44.717 14.6899 45.7223 14.0473L38.0109 15.1448C36.3775 15.3773 35.7257 17.3433 36.9067 18.4718L46.0335 27.1859C46.5032 27.6345 46.7174 28.2799 46.6068 28.9125L44.4515 41.2172C44.1733 42.8102 45.8798 44.025 47.3409 43.2736L52.9541 40.3823C52.9323 40.1967 52.9379 40.0088 52.9705 39.8248Z" fill="#F4B537"/>
<path d="M72.7393 96.8941C72.7393 98.2279 73.8204 99.3093 75.1533 99.3093H83.3307C86.0867 99.3093 88.4414 97.2081 88.6236 94.4798H75.1543C73.8204 94.4798 72.7393 95.5612 72.7393 96.8941ZM72.7393 86.4707C72.7393 87.8048 73.8204 88.8859 75.1533 88.8859H83.8189C86.5599 88.8831 88.7956 86.7508 88.977 84.0566H75.1536C73.8204 84.0566 72.7393 85.1378 72.7393 86.4707ZM87.2283 104.825H75.1533C73.8204 104.825 72.7393 105.906 72.7393 107.239C72.7393 108.573 73.8204 109.655 75.1533 109.655H81.9375C84.6924 109.655 87.0462 107.554 87.2283 104.825Z" fill="#FFBEAB"/>
</g>
<defs>
<clipPath id="clip0_186_3518">
<rect width="120" height="120" fill="white"/>
</clipPath>
</defs>
</svg>
